<svg width="18" height="20" viewBox="0 0 18 20" fill="none" xmlns="http://www.w3.org/2000/svg">
<path d="M6.66667 1.6665C6.66667 1.11422 6.21895 0.666504 5.66667 0.666504C5.11438 0.666504 4.66667 1.11422 4.66667 1.6665H6.66667ZM4.66667 4.99984C4.66667 5.55212 5.11438 5.99984 5.66667 5.99984C6.21895 5.99984 6.66667 5.55212 6.66667 4.99984H4.66667ZM13.3333 1.6665C13.3333 1.11422 12.8856 0.666504 12.3333 0.666504C11.781 0.666504 11.3333 1.11422 11.3333 1.6665H13.3333ZM11.3333 4.99984C11.3333 5.55212 11.781 5.99984 12.3333 5.99984C12.8856 5.99984 13.3333 5.55212 13.3333 4.99984H11.3333ZM4 4.33317H14V2.33317H4V4.33317ZM15.5 5.83317V15.8332H17.5V5.83317H15.5ZM14 17.3332H4V19.3332H14V17.3332ZM2.5 15.8332V5.83317H0.5V15.8332H2.5ZM4 17.3332C3.17157 17.3332 2.5 16.6616 2.5 15.8332H0.5C0.5 17.7662 2.067 19.3332 4 19.3332V17.3332ZM15.5 15.8332C15.5 16.6616 14.8284 17.3332 14 17.3332V19.3332C15.933 19.3332 17.5 17.7662 17.5 15.8332H15.5ZM14 4.33317C14.8284 4.33317 15.5 5.00474 15.5 5.83317H17.5C17.5 3.90017 15.933 2.33317 14 2.33317V4.33317ZM4 2.33317C2.067 2.33317 0.5 3.90017 0.5 5.83317H2.5C2.5 5.00474 3.17157 4.33317 4 4.33317V2.33317ZM1.5 9.33317H16.5V7.33317H1.5V9.33317ZM4.66667 1.6665V4.99984H6.66667V1.6665H4.66667ZM11.3333 1.6665V4.99984H13.3333V1.6665H11.3333Z" fill="#4B5563"/>
</svg>
