<svg width="33" height="32" viewBox="0 0 33 32" fill="none" xmlns="http://www.w3.org/2000/svg">
<g clip-path="url(#clip0_592_3502)">
<path d="M32.3326 16C32.3326 7.16344 25.1691 0 16.3326 0C7.49602 0 0.332581 7.16344 0.332581 16C0.332581 23.9859 6.18352 30.6053 13.8326 31.8056V20.625H9.77008V16H13.8326V12.475C13.8326 8.465 16.2213 6.25 19.876 6.25C21.626 6.25 23.4576 6.5625 23.4576 6.5625V10.5H21.4401C19.4526 10.5 18.8326 11.7334 18.8326 13V16H23.2701L22.5607 20.625H18.8326V31.8056C26.4816 30.6053 32.3326 23.9859 32.3326 16Z" fill="#183536"/>
</g>
<defs>
<clipPath id="clip0_592_3502">
<rect x="0.333374" width="32" height="32" rx="16" fill="white"/>
</clipPath>
</defs>
</svg>
