<svg width="31" height="32" viewBox="0 0 31 32" fill="none" xmlns="http://www.w3.org/2000/svg">
<path fill-rule="evenodd" clip-rule="evenodd" d="M26.4648 27.2676H21.9193V19.84C21.9193 18.0711 21.8903 15.792 19.5563 15.792C17.1881 15.792 16.8286 17.7227 16.8286 19.7156V27.2676H12.2832V11.9964H16.6429V14.0836H16.706C17.3125 12.8836 18.7964 11.6178 21.0095 11.6178C25.6146 11.6178 26.4665 14.7787 26.4665 18.8924V27.2676H26.4648ZM7.15671 9.91111C6.81037 9.91146 6.46735 9.84063 6.14725 9.70265C5.82714 9.56467 5.53622 9.36226 5.29108 9.10696C5.04595 8.85166 4.8514 8.54847 4.71855 8.21472C4.5857 7.88097 4.51715 7.52318 4.51682 7.16178C4.51648 6.80038 4.58437 6.44245 4.7166 6.10843C4.84882 5.77441 5.04281 5.47083 5.28747 5.21504C5.53213 4.95924 5.82268 4.75624 6.14253 4.61762C6.46238 4.47899 6.80526 4.40746 7.1516 4.40711C7.85106 4.4064 8.52215 4.69567 9.01722 5.21127C9.5123 5.72687 9.79081 6.42657 9.79148 7.15644C9.79216 7.88632 9.51495 8.58658 9.02084 9.10318C8.52672 9.61978 7.85617 9.9104 7.15671 9.91111ZM4.87886 27.2676H9.43115V11.9964H4.87715L4.87886 27.2676ZM28.7307 0H2.59589C1.34708 0 0.333374 1.03289 0.333374 2.30756V29.6907C0.333374 30.9653 1.34708 32 2.59589 32H28.7307C29.9812 32 31 30.9653 31 29.6907V2.30756C31 1.03289 29.9812 0 28.7307 0Z" fill="#183536"/>
</svg>
