<svg width="406" height="148" viewBox="0 0 406 148" fill="none" xmlns="http://www.w3.org/2000/svg">
<path d="M31.1119 133.655C30.5666 133.655 30.0294 133.486 29.5643 133.142C3.39217 113.464 -6.67096 79.5544 4.51475 48.7476C11.2583 30.1769 24.8415 15.3428 42.7386 6.9876C60.6438 -1.36761 80.73 -2.26568 99.3007 4.48585C103.486 6.00133 107.544 7.9017 111.368 10.1308C112.603 10.8445 113.02 12.4241 112.299 13.6589C111.577 14.8938 109.997 15.3027 108.77 14.5891C105.21 12.5123 101.434 10.7402 97.5366 9.32898C80.2569 3.05055 61.5739 3.87644 44.9196 11.6623C28.2654 19.4402 15.6443 33.2399 9.36591 50.5117C-1.04202 79.1695 8.32351 110.714 32.6595 129.02C33.7981 129.878 34.0306 131.498 33.1726 132.628C32.6675 133.302 31.8897 133.655 31.1119 133.655Z" fill="#ABD8D6"/>
<path d="M74.0827 148C71.9337 148 69.7688 147.912 67.5958 147.711C66.1765 147.591 65.1261 146.332 65.2544 144.913C65.3747 143.494 66.6576 142.427 68.0528 142.572C99.004 145.298 128.095 126.767 138.719 97.5C143.41 84.5904 144.148 70.7425 140.852 57.472C140.507 56.0848 141.349 54.6896 142.728 54.3448C144.116 54 145.511 54.842 145.856 56.2211C149.408 70.494 148.614 85.3762 143.57 99.2561C132.882 128.668 104.889 147.992 74.0827 148Z" fill="#ABD8D6"/>
<path d="M24.0476 108.372C23.1976 108.372 22.3637 107.947 21.8666 107.178C11.4987 90.844 9.33375 71.0625 15.9329 52.9008C21.5699 37.3771 32.916 24.9806 47.8784 17.9885C62.8408 11.0045 79.6233 10.2588 95.147 15.8957C103.486 18.9267 110.903 23.5774 117.206 29.7195C118.224 30.7138 118.248 32.3415 117.254 33.3679C116.26 34.3862 114.632 34.4103 113.605 33.408C107.832 27.779 101.033 23.5132 93.391 20.7388C79.1663 15.567 63.7789 16.2565 50.0674 22.6553C36.3559 29.062 25.956 40.4241 20.7841 54.6488C14.7382 71.2951 16.7187 89.4328 26.2286 104.403C26.9984 105.606 26.6375 107.202 25.4348 107.963C25.0018 108.244 24.5207 108.372 24.0476 108.372Z" fill="#ABD8D6"/>
<path d="M74.0828 135.86C66.9624 135.86 59.818 134.617 52.9381 132.107C49.9473 131.017 47.0205 129.702 44.2622 128.186C43.0113 127.505 42.5543 125.933 43.2438 124.682C43.9334 123.431 45.497 122.974 46.7399 123.656C49.2737 125.043 51.9519 126.254 54.7022 127.256C68.9269 132.428 84.3143 131.747 98.0258 125.34C111.737 118.933 122.137 107.571 127.309 93.3463C132.617 78.7287 131.767 62.9805 124.912 49.0043C124.278 47.7214 124.807 46.1818 126.082 45.5564C127.357 44.9229 128.905 45.4602 129.538 46.7351C137.027 61.9782 137.958 79.1617 132.152 95.1103C126.515 110.626 115.169 123.022 100.207 130.015C91.8837 133.904 82.9992 135.86 74.0828 135.86Z" fill="#ABD8D6"/>
<path d="M27.3192 87.621C26.1566 87.621 25.1062 86.8272 24.8255 85.6485C22.5403 76.0424 23.1256 66.0514 26.5094 56.734C36.0273 30.5297 65.0941 16.9545 91.2983 26.4724C102.163 30.4175 111.409 38.035 117.358 47.9137C118.088 49.1245 117.695 50.7041 116.484 51.4258C115.273 52.1555 113.694 51.7626 112.972 50.5518C107.64 41.6674 99.3248 34.8276 89.5583 31.2755C66.0082 22.7358 39.8841 34.9399 31.3285 58.49C28.2895 66.8613 27.7683 75.8419 29.813 84.4698C30.1417 85.8489 29.2918 87.2281 27.9126 87.5569C27.7122 87.605 27.5117 87.621 27.3192 87.621Z" fill="#ABD8D6"/>
<path d="M73.9864 124.578C68.2692 124.578 62.4559 123.6 56.7708 121.539C48.9528 118.7 41.9126 113.945 36.3879 107.779C35.4418 106.729 35.53 105.109 36.5884 104.163C37.6388 103.225 39.2585 103.305 40.2047 104.363C45.1601 109.896 51.4947 114.17 58.5188 116.728C82.0609 125.267 108.185 113.079 116.749 89.5292C119.21 82.7456 120.02 75.6974 119.162 68.577C118.986 67.1738 119.988 65.8989 121.399 65.7305C122.811 65.5621 124.078 66.5564 124.246 67.9676C125.208 75.8899 124.302 83.7319 121.56 91.2853C114.111 111.796 94.6579 124.57 73.9864 124.578Z" fill="#ABD8D6"/>
<path d="M108.891 86.8354C108.65 86.8354 108.401 86.8034 108.161 86.7312C106.79 86.3303 106.012 84.895 106.413 83.5318C108.738 75.6497 108.097 67.1983 104.617 59.7411C96.7427 42.8864 76.6164 35.5736 59.7617 43.4477C57.6849 44.4179 55.7043 45.5966 53.8842 46.9517C52.7455 47.8017 51.1258 47.5611 50.2759 46.4145C49.4259 45.2759 49.6665 43.6562 50.8131 42.8062C52.9139 41.2506 55.1912 39.8955 57.5806 38.7729C77.0173 29.7041 100.215 38.1234 109.292 57.5601C113.309 66.1639 114.038 75.9063 111.36 84.9992C111.032 86.1058 110.005 86.8354 108.891 86.8354Z" fill="#ABD8D6"/>
<path d="M74.0668 112.927C69.5925 112.927 65.0941 112.141 60.7642 110.569C50.9977 107.025 43.1958 99.8807 38.8017 90.467C34.8165 81.9354 34.0548 72.2572 36.6688 63.2204C37.0617 61.8573 38.497 61.0554 39.8601 61.4644C41.2313 61.8573 42.0171 63.2926 41.6242 64.6557C39.355 72.4977 40.0125 80.885 43.4684 88.286C47.2852 96.4488 54.0447 102.647 62.5202 105.726C70.9957 108.797 80.1528 108.396 88.3155 104.579C90.5286 103.545 92.6294 102.278 94.5539 100.811C95.6925 99.9448 97.3042 100.169 98.1622 101.292C99.0282 102.423 98.8117 104.042 97.6811 104.908C95.46 106.6 93.0464 108.068 90.4965 109.254C85.2685 111.7 79.6717 112.927 74.0668 112.927Z" fill="#ABD8D6"/>
<path d="M49.6587 81.3666C48.4719 81.3666 47.4135 80.5327 47.1729 79.3219C46.1947 74.4307 46.5876 69.355 48.2955 64.6562C50.7973 57.7764 55.8248 52.2918 62.4481 49.1886C69.0713 46.0935 76.5124 45.7648 83.3922 48.2665C87.5778 49.782 91.3625 52.3318 94.3374 55.6114C95.2755 56.6458 95.1953 58.2575 94.1529 59.1956C93.1105 60.1338 91.5069 60.0616 90.5607 59.0192C88.1391 56.3491 85.06 54.2803 81.6442 53.0375C76.0473 51.0088 69.9854 51.2654 64.589 53.7912C59.1926 56.309 55.0951 60.7833 53.0585 66.3882C51.6713 70.229 51.3505 74.3505 52.1363 78.3356C52.417 79.7148 51.5189 81.0539 50.1398 81.3265C49.9874 81.3506 49.819 81.3666 49.6587 81.3666Z" fill="#ABD8D6"/>
<path d="M74.0105 101.397C70.9154 101.397 67.7641 100.867 64.6851 99.7448C62.5922 98.9831 60.5957 97.9727 58.7594 96.7379C57.5887 95.9521 57.284 94.3725 58.0698 93.2098C58.8557 92.0391 60.4273 91.7344 61.598 92.5122C63.0974 93.5145 64.7171 94.3484 66.4251 94.9658C77.9957 99.1675 90.8171 93.1777 95.0108 81.6151C96.422 77.7262 96.7347 73.5486 95.9008 69.5233C95.6202 68.1442 96.5022 66.8051 97.8733 66.5244C99.2686 66.2358 100.592 67.1178 100.872 68.497C101.891 73.4444 101.514 78.5762 99.7817 83.3471C95.7485 94.4767 85.2122 101.397 74.0105 101.397Z" fill="#ABD8D6"/>
<path d="M64.7091 68.9463C64.1318 68.9463 63.5545 68.7539 63.0734 68.361C61.9749 67.4629 61.8065 65.8352 62.7125 64.7366C66.6496 59.9336 73.2167 58.1294 79.0541 60.2463C79.6555 60.4628 80.2328 60.7114 80.7861 61C82.053 61.6495 82.5501 63.2051 81.9007 64.472C81.2512 65.7389 79.6876 66.2361 78.4287 65.5866C78.0678 65.4022 77.691 65.2338 77.2981 65.0894C73.5054 63.7183 69.2636 64.881 66.7137 68.0001C66.2006 68.6256 65.4548 68.9463 64.7091 68.9463Z" fill="#ABD8D6"/>
<path d="M74.0426 88.6633C72.3828 88.6633 70.6989 88.3747 69.0551 87.7813C64.5488 86.1456 61.1249 82.4009 59.8901 77.7583C59.5292 76.3791 60.3471 74.9679 61.7263 74.607C63.0974 74.2462 64.5087 75.0561 64.8775 76.4352C65.6714 79.4421 67.8925 81.8717 70.8112 82.9302C73.1927 83.7962 75.7666 83.6839 78.0598 82.6094C80.3611 81.535 82.1011 79.6346 82.9591 77.2531C83.6647 75.3287 83.7209 73.276 83.1435 71.3115C82.7426 69.9483 83.5124 68.513 84.8835 68.1041C86.2467 67.7032 87.682 68.4729 88.0909 69.8441C88.981 72.875 88.8927 76.0423 87.8103 79.0091C85.6613 84.9588 80.0324 88.6633 74.0426 88.6633Z" fill="#ABD8D6"/>
<path d="M186.66 45.038C184.026 45.038 181.752 44.4349 179.839 43.2288C177.926 42.0088 176.456 40.2551 175.431 37.9677C174.405 35.6802 173.892 32.9145 173.892 29.6705C173.892 26.3987 174.412 23.6053 175.451 21.2901C176.505 18.9749 178.002 17.2074 179.943 15.9874C181.884 14.7535 184.178 14.1366 186.826 14.1366C188.337 14.1366 189.758 14.4 191.089 14.9268C192.42 15.4536 193.598 16.1745 194.624 17.0895C195.65 17.9906 196.468 19.0234 197.078 20.188C197.702 21.3525 198.055 22.5655 198.139 23.8271H194.021C193.827 22.718 193.397 21.6852 192.732 20.7286C192.067 19.7721 191.221 19.0026 190.195 18.4204C189.183 17.8381 188.039 17.547 186.764 17.547C185.031 17.547 183.506 17.9768 182.189 18.8363C180.886 19.682 179.867 20.992 179.132 22.7665C178.411 24.541 178.051 26.8146 178.051 29.5873C178.051 31.7222 178.273 33.5522 178.716 35.0772C179.16 36.6021 179.777 37.8429 180.567 38.7995C181.371 39.7422 182.307 40.4423 183.374 40.8998C184.456 41.3434 185.62 41.5652 186.868 41.5652C188.129 41.5652 189.225 41.3434 190.153 40.8998C191.096 40.4561 191.879 39.8877 192.503 39.1946C193.127 38.4876 193.605 37.732 193.938 36.9279C194.285 36.11 194.472 35.3267 194.5 34.5781L194.624 31.9163H187.304V29.0882L198.617 29.109V44.6221H195.726V40.0472C195.2 40.9067 194.534 41.7177 193.73 42.4802C192.926 43.2427 191.942 43.8596 190.777 44.3309C189.627 44.8023 188.254 45.038 186.66 45.038ZM209.925 44.8924C208.761 44.8924 207.818 44.733 207.097 44.4141C206.39 44.0953 205.842 43.6655 205.454 43.1248C205.08 42.5842 204.823 41.9672 204.685 41.2741C204.56 40.567 204.498 39.8392 204.498 39.0906V13.7207H208.282V38.7163C208.282 39.7976 208.49 40.6086 208.906 41.1493C209.336 41.69 209.932 41.988 210.695 42.0435L211.859 42.0643V44.5597C211.54 44.6567 211.208 44.733 210.861 44.7884C210.514 44.8577 210.202 44.8924 209.925 44.8924ZM223.85 45.038C221.868 45.038 220.135 44.6151 218.652 43.7695C217.182 42.9099 216.038 41.6553 215.22 40.0056C214.402 38.3558 213.994 36.3387 213.994 33.9542C213.994 31.7084 214.375 29.7398 215.137 28.0485C215.9 26.3571 217.016 25.0471 218.485 24.1182C219.955 23.1755 221.75 22.7042 223.871 22.7042C225.854 22.7042 227.573 23.1409 229.028 24.0142C230.484 24.8738 231.614 26.1423 232.418 27.8197C233.236 29.4972 233.645 31.542 233.645 33.9542C233.645 36.1446 233.27 38.0717 232.522 39.7352C231.773 41.3988 230.671 42.702 229.215 43.6447C227.774 44.5735 225.985 45.038 223.85 45.038ZM223.871 42.0019C225.147 42.0019 226.228 41.6761 227.115 41.0245C228.002 40.373 228.675 39.4372 229.132 38.2172C229.604 36.9972 229.839 35.5485 229.839 33.8711C229.839 32.3322 229.631 30.9528 229.215 29.7329C228.813 28.499 228.176 27.5217 227.302 26.8008C226.429 26.0799 225.285 25.7194 223.871 25.7194C222.568 25.7194 221.466 26.0452 220.565 26.6968C219.664 27.3345 218.977 28.2633 218.506 29.4833C218.049 30.7033 217.82 32.1659 217.82 33.8711C217.82 35.3822 218.021 36.7546 218.423 37.9885C218.839 39.2223 219.49 40.1997 220.378 40.9206C221.279 41.6415 222.443 42.0019 223.871 42.0019ZM248.552 45.038C247.29 45.038 246.223 44.8716 245.349 44.5389C244.49 44.2062 243.783 43.7833 243.228 43.2704C242.674 42.7436 242.244 42.2099 241.939 41.6692C241.634 41.1146 241.412 40.6294 241.274 40.2135L240.858 44.6221H237.926V13.7207H241.793V26.5304C241.974 26.17 242.244 25.7749 242.604 25.3451C242.979 24.9154 243.457 24.4995 244.039 24.0974C244.622 23.6954 245.308 23.3627 246.098 23.0993C246.902 22.8359 247.817 22.7042 248.843 22.7042C251.532 22.7042 253.667 23.6399 255.248 25.5115C256.842 27.383 257.639 30.1418 257.639 33.7879C257.639 36.0476 257.3 38.0231 256.62 39.7145C255.941 41.3919 254.929 42.702 253.584 43.6447C252.24 44.5735 250.562 45.038 248.552 45.038ZM247.866 42.0851C249.612 42.0851 251.033 41.4127 252.129 40.068C253.224 38.7094 253.771 36.5536 253.771 33.6007C253.771 31.0915 253.258 29.1506 252.233 27.7781C251.221 26.3918 249.737 25.6986 247.782 25.6986C246.355 25.6986 245.204 26.0106 244.33 26.6344C243.471 27.2444 242.833 28.1386 242.417 29.317C242.015 30.4953 241.807 31.9233 241.793 33.6007C241.793 36.6091 242.258 38.7787 243.187 40.1096C244.129 41.4266 245.689 42.0851 247.866 42.0851ZM267.697 45.038C266.296 45.038 265.063 44.7954 263.995 44.3101C262.941 43.8111 262.11 43.0971 261.5 42.1683C260.904 41.2394 260.605 40.1165 260.605 38.7995C260.605 36.415 261.437 34.6405 263.101 33.476C264.764 32.3114 267.433 31.6876 271.107 31.6044L274.933 31.5004V29.816C274.933 28.499 274.538 27.4593 273.748 26.6968C272.958 25.9204 271.738 25.5323 270.088 25.5323C268.854 25.5461 267.766 25.8373 266.823 26.4057C265.88 26.9741 265.277 27.9029 265.014 29.1922H261.624C261.708 27.792 262.096 26.6136 262.789 25.657C263.496 24.6866 264.487 23.9519 265.763 23.4528C267.038 22.9537 268.542 22.7042 270.275 22.7042C272.147 22.7042 273.699 22.9676 274.933 23.4944C276.181 24.0212 277.11 24.7975 277.72 25.8234C278.344 26.8493 278.656 28.1109 278.656 29.6081V44.6221H275.37L275.079 40.5878C274.261 42.2653 273.207 43.4298 271.918 44.0814C270.643 44.7191 269.235 45.038 267.697 45.038ZM268.84 42.2722C269.575 42.2722 270.296 42.1405 271.003 41.8771C271.724 41.6137 272.375 41.2602 272.958 40.8166C273.554 40.3591 274.032 39.8531 274.393 39.2986C274.753 38.7302 274.933 38.1479 274.933 37.5518V33.8711L271.752 33.9334C270.102 33.9612 268.729 34.1275 267.634 34.4325C266.539 34.7375 265.714 35.2158 265.16 35.8674C264.605 36.519 264.328 37.3716 264.328 38.4252C264.328 39.6313 264.751 40.574 265.596 41.2533C266.442 41.9326 267.523 42.2722 268.84 42.2722ZM289.25 44.8924C288.085 44.8924 287.143 44.733 286.422 44.4141C285.715 44.0953 285.167 43.6655 284.779 43.1248C284.405 42.5842 284.148 41.9672 284.01 41.2741C283.885 40.567 283.822 39.8392 283.822 39.0906V13.7207H287.607V38.7163C287.607 39.7976 287.815 40.6086 288.231 41.1493C288.661 41.69 289.257 41.988 290.019 42.0435L291.184 42.0643V44.5597C290.865 44.6567 290.532 44.733 290.186 44.7884C289.839 44.8577 289.527 44.8924 289.25 44.8924Z" fill="#ABD8D6"/>
<path d="M175.265 89.5254V59.4558H186.91C189.073 59.4558 190.882 59.7886 192.338 60.454C193.793 61.1056 194.882 62.0483 195.603 63.2821C196.324 64.5021 196.684 65.9647 196.684 67.6699C196.684 69.3057 196.393 70.6643 195.811 71.7457C195.242 72.827 194.514 73.7004 193.627 74.3658C192.74 75.0174 191.818 75.5234 190.861 75.8839L196.767 89.5254H192.691L187.201 76.5701H179.112V89.5254H175.265ZM179.112 73.3885H185.663C187.922 73.3885 189.669 72.931 190.903 72.016C192.137 71.0872 192.754 69.7147 192.754 67.8986C192.754 66.1241 192.199 64.8002 191.09 63.9268C189.995 63.0395 188.491 62.5959 186.578 62.5959H179.112V73.3885ZM201.65 89.5254V68.0234H205.372V89.5254H201.65ZM201.546 63.4693V59.4766H205.476V63.4693H201.546ZM219.996 96.6373C216.627 96.6373 214 96.1451 212.114 95.1608C210.229 94.1904 209.286 92.7971 209.286 90.981C209.286 90.2047 209.467 89.5462 209.827 89.0055C210.187 88.451 210.617 87.9935 211.116 87.633C211.615 87.2726 212.08 86.9884 212.51 86.7805C212.939 86.5586 213.224 86.3992 213.362 86.3022C213.113 86.1635 212.815 85.9902 212.468 85.7823C212.121 85.5743 211.809 85.2971 211.532 84.9505C211.269 84.6039 211.137 84.1534 211.137 83.5988C211.137 82.9195 211.456 82.2957 212.094 81.7273C212.731 81.1589 213.681 80.736 214.943 80.4588C213.681 79.8211 212.697 78.9754 211.99 77.9218C211.283 76.8682 210.929 75.7245 210.929 74.4906C210.929 73.1043 211.303 71.8982 212.052 70.8723C212.801 69.8464 213.875 69.0631 215.275 68.5225C216.676 67.9679 218.346 67.6907 220.287 67.6907C221.687 67.6907 222.859 67.857 223.801 68.1897C224.758 68.5086 225.645 68.9661 226.463 69.5622C226.685 69.4652 227.038 69.3196 227.524 69.1255C228.009 68.9176 228.536 68.6957 229.104 68.4601C229.686 68.2244 230.227 68.0026 230.726 67.7946C231.239 67.5728 231.648 67.4065 231.953 67.2956L231.932 70.8515L228.168 71.5585C228.39 72.0022 228.563 72.4874 228.688 73.0142C228.813 73.541 228.875 74.0331 228.875 74.4906C228.875 75.7522 228.543 76.8959 227.877 77.9218C227.225 78.9477 226.234 79.7656 224.903 80.3756C223.573 80.9856 221.909 81.2906 219.913 81.2906C219.746 81.2906 219.531 81.2906 219.268 81.2906C219.018 81.2767 218.804 81.2629 218.623 81.249C217.154 81.2906 216.142 81.4569 215.587 81.7481C215.047 82.0253 214.776 82.3373 214.776 82.6838C214.776 83.0859 215.088 83.3631 215.712 83.5156C216.336 83.6681 217.389 83.7998 218.873 83.9107C219.414 83.9385 220.079 83.9731 220.869 84.0147C221.673 84.0563 222.567 84.1118 223.552 84.1811C225.798 84.3197 227.53 84.895 228.75 85.9071C229.97 86.9191 230.58 88.2846 230.58 90.0037C230.58 91.9584 229.707 93.5527 227.96 94.7865C226.227 96.0204 223.573 96.6373 219.996 96.6373ZM220.682 94.1627C222.664 94.1627 224.182 93.8646 225.236 93.2685C226.304 92.6724 226.837 91.7712 226.837 90.5651C226.837 89.7056 226.512 89.0055 225.86 88.4648C225.208 87.9103 224.224 87.5915 222.907 87.5083L216.877 87.1132C216.336 87.0854 215.774 87.2241 215.192 87.5291C214.61 87.8202 214.118 88.2292 213.716 88.756C213.314 89.2828 213.113 89.8789 213.113 90.5443C213.113 91.6811 213.73 92.5684 214.963 93.2061C216.197 93.8438 218.103 94.1627 220.682 94.1627ZM220.037 78.816C221.576 78.816 222.817 78.4555 223.76 77.7346C224.716 77.0137 225.195 75.9463 225.195 74.5322C225.195 73.0766 224.716 71.9675 223.76 71.205C222.817 70.4425 221.576 70.0613 220.037 70.0613C218.457 70.0613 217.182 70.4495 216.211 71.2258C215.255 71.9883 214.776 73.0904 214.776 74.5322C214.776 75.8908 215.234 76.9444 216.149 77.693C217.078 78.4417 218.374 78.816 220.037 78.816ZM235.948 89.5254V58.624H239.692V71.1842C240.052 70.5881 240.537 70.0336 241.147 69.5206C241.757 68.9938 242.499 68.571 243.372 68.2521C244.246 67.9194 245.258 67.753 246.408 67.753C247.809 67.753 249.077 68.0164 250.214 68.5433C251.351 69.0562 252.252 69.791 252.917 70.7475C253.583 71.7041 253.915 72.8409 253.915 74.1579V89.5254H250.068V74.9273C250.068 73.638 249.625 72.6468 248.737 71.9536C247.864 71.2466 246.72 70.8931 245.306 70.8931C244.35 70.8931 243.449 71.0525 242.603 71.3714C241.757 71.6764 241.071 72.1477 240.544 72.7854C240.031 73.4093 239.775 74.2064 239.775 75.1769V89.5254H235.948ZM266.067 89.6294C264.584 89.6294 263.433 89.4283 262.615 89.0263C261.797 88.6243 261.222 88.0282 260.889 87.2379C260.571 86.4477 260.411 85.4773 260.411 84.3266V70.8307H256.918V68.0234H260.515L261.451 61.7641H264.279V68.0026H269.124V70.8307H264.279V84.2019C264.279 84.9644 264.355 85.5258 264.508 85.8863C264.674 86.2329 264.944 86.4547 265.319 86.5517C265.693 86.6488 266.22 86.6973 266.899 86.6973H269.249V89.2759C268.986 89.3729 268.584 89.4561 268.043 89.5254C267.516 89.5947 266.858 89.6294 266.067 89.6294ZM281.174 89.9413C279.676 89.9413 278.283 89.7125 276.994 89.2551C275.718 88.7837 274.658 88.0559 273.812 87.0716C272.967 86.0734 272.44 84.8049 272.232 83.2661H275.725C275.906 84.1118 276.252 84.8188 276.765 85.3872C277.278 85.9417 277.909 86.3646 278.657 86.6557C279.42 86.9329 280.252 87.0716 281.153 87.0716C282.608 87.0716 283.78 86.8012 284.667 86.2606C285.554 85.7199 285.998 84.8881 285.998 83.7652C285.998 82.975 285.762 82.3442 285.291 81.8728C284.834 81.3876 284.113 81.0341 283.128 80.8123L278.678 79.7102C276.945 79.2943 275.559 78.6427 274.519 77.7554C273.493 76.8682 272.973 75.6274 272.96 74.0331C272.96 72.7716 273.265 71.6625 273.875 70.7059C274.485 69.7494 275.393 68.9938 276.599 68.4393C277.819 67.8847 279.337 67.6075 281.153 67.6075C283.496 67.6075 285.381 68.1343 286.809 69.1879C288.237 70.2276 288.986 71.7595 289.055 73.7836H285.645C285.506 72.7577 285.048 71.9467 284.272 71.3506C283.496 70.7406 282.442 70.4356 281.111 70.4356C279.753 70.4356 278.637 70.7129 277.763 71.2674C276.904 71.8081 276.474 72.6537 276.474 73.8044C276.474 74.5669 276.779 75.1699 277.389 75.6135C278.013 76.0433 278.914 76.4038 280.092 76.6949L284.418 77.7762C285.402 78.0396 286.22 78.3862 286.871 78.816C287.523 79.2457 288.036 79.724 288.41 80.2508C288.785 80.7776 289.048 81.3322 289.201 81.9144C289.367 82.4828 289.45 83.0304 289.45 83.5572C289.45 84.8742 289.124 86.011 288.473 86.9676C287.821 87.9103 286.878 88.6451 285.645 89.1719C284.411 89.6848 282.92 89.9413 281.174 89.9413Z" fill="#ABD8D6"/>
<path d="M186.681 134.845C183.977 134.845 181.669 134.228 179.756 132.994C177.857 131.76 176.401 129.986 175.389 127.67C174.391 125.355 173.892 122.562 173.892 119.29C173.892 116.032 174.391 113.259 175.389 110.972C176.387 108.685 177.836 106.945 179.735 105.752C181.648 104.546 183.963 103.943 186.681 103.943C188.802 103.943 190.68 104.387 192.316 105.274C193.952 106.148 195.269 107.319 196.267 108.788C197.265 110.258 197.854 111.873 198.035 113.634H193.938C193.716 112.455 193.293 111.388 192.67 110.431C192.046 109.475 191.228 108.712 190.216 108.144C189.204 107.575 187.991 107.291 186.577 107.291C184.761 107.291 183.222 107.721 181.96 108.581C180.712 109.426 179.763 110.736 179.111 112.511C178.474 114.285 178.155 116.559 178.155 119.332C178.155 123.518 178.869 126.596 180.297 128.565C181.738 130.519 183.832 131.497 186.577 131.497C187.991 131.497 189.204 131.199 190.216 130.602C191.228 130.006 192.046 129.209 192.67 128.211C193.293 127.213 193.716 126.132 193.938 124.967H198.035C197.882 126.242 197.536 127.476 196.995 128.669C196.468 129.847 195.74 130.9 194.811 131.829C193.883 132.758 192.739 133.493 191.38 134.034C190.036 134.574 188.469 134.845 186.681 134.845ZM211.198 134.845C209.215 134.845 207.483 134.422 205.999 133.576C204.53 132.717 203.386 131.462 202.568 129.812C201.75 128.162 201.341 126.145 201.341 123.761C201.341 121.515 201.722 119.546 202.485 117.855C203.247 116.164 204.363 114.854 205.833 113.925C207.302 112.982 209.098 112.511 211.219 112.511C213.201 112.511 214.92 112.947 216.376 113.821C217.832 114.68 218.961 115.949 219.765 117.626C220.583 119.304 220.992 121.349 220.992 123.761C220.992 125.951 220.618 127.878 219.869 129.542C219.121 131.205 218.019 132.509 216.563 133.451C215.121 134.38 213.333 134.845 211.198 134.845ZM211.219 131.809C212.494 131.809 213.575 131.483 214.463 130.831C215.35 130.18 216.022 129.244 216.48 128.024C216.951 126.804 217.187 125.355 217.187 123.678C217.187 122.139 216.979 120.759 216.563 119.54C216.161 118.306 215.523 117.328 214.65 116.607C213.776 115.887 212.633 115.526 211.219 115.526C209.916 115.526 208.813 115.852 207.912 116.503C207.011 117.141 206.325 118.07 205.854 119.29C205.396 120.51 205.167 121.973 205.167 123.678C205.167 125.189 205.368 126.561 205.77 127.795C206.186 129.029 206.838 130.006 207.725 130.727C208.626 131.448 209.791 131.809 211.219 131.809ZM225.273 134.429V112.927H228.975V116.046C229.571 115.103 230.389 114.278 231.428 113.571C232.468 112.864 233.82 112.511 235.484 112.511C236.26 112.511 237.05 112.642 237.854 112.906C238.672 113.169 239.421 113.564 240.1 114.091C240.779 114.618 241.306 115.263 241.68 116.025C242.346 114.972 243.247 114.126 244.384 113.488C245.521 112.837 246.803 112.511 248.231 112.511C248.979 112.511 249.763 112.629 250.581 112.864C251.399 113.086 252.154 113.488 252.847 114.07C253.554 114.639 254.13 115.436 254.573 116.462C255.017 117.474 255.239 118.777 255.239 120.371V134.429H251.371V120.746C251.371 119.442 251.163 118.437 250.747 117.73C250.331 117.009 249.784 116.503 249.104 116.212C248.439 115.921 247.725 115.776 246.962 115.776C246.297 115.776 245.59 115.907 244.841 116.171C244.093 116.434 243.455 116.878 242.928 117.502C242.401 118.125 242.138 118.978 242.138 120.059V134.429H238.312V119.623C238.312 118.777 238.083 118.07 237.625 117.502C237.182 116.933 236.62 116.503 235.941 116.212C235.276 115.921 234.61 115.776 233.945 115.776C233.21 115.776 232.468 115.921 231.72 116.212C230.985 116.503 230.361 116.968 229.848 117.606C229.349 118.229 229.099 119.047 229.099 120.059V134.429H225.273ZM260.426 141.125V112.927H264.253L264.294 116.67C264.544 116.226 264.863 115.762 265.251 115.277C265.653 114.791 266.138 114.341 266.707 113.925C267.289 113.509 267.961 113.169 268.724 112.906C269.5 112.642 270.38 112.511 271.365 112.511C273.084 112.511 274.595 112.906 275.898 113.696C277.215 114.472 278.241 115.665 278.976 117.273C279.71 118.881 280.078 120.919 280.078 123.387C280.078 125.854 279.717 127.941 278.996 129.646C278.289 131.337 277.263 132.626 275.919 133.514C274.574 134.401 272.952 134.845 271.053 134.845C270.096 134.845 269.244 134.706 268.495 134.429C267.76 134.165 267.116 133.819 266.561 133.389C266.02 132.945 265.563 132.474 265.189 131.975C264.828 131.476 264.53 130.998 264.294 130.54V141.125H260.426ZM270.325 131.85C272.099 131.85 273.548 131.178 274.671 129.833C275.794 128.474 276.355 126.367 276.355 123.511C276.355 121.058 275.842 119.11 274.817 117.668C273.791 116.226 272.293 115.505 270.325 115.505C268.329 115.505 266.817 116.247 265.792 117.73C264.766 119.2 264.253 121.127 264.253 123.511C264.253 125.05 264.481 126.45 264.939 127.712C265.396 128.973 266.076 129.979 266.977 130.727C267.878 131.476 268.994 131.85 270.325 131.85ZM289.797 134.699C288.633 134.699 287.69 134.54 286.969 134.221C286.262 133.902 285.715 133.472 285.326 132.931C284.952 132.391 284.696 131.774 284.557 131.081C284.432 130.374 284.37 129.646 284.37 128.897V103.527H288.155V128.523C288.155 129.604 288.363 130.415 288.778 130.956C289.208 131.497 289.804 131.795 290.567 131.85L291.731 131.871V134.366C291.412 134.463 291.08 134.54 290.733 134.595C290.387 134.664 290.075 134.699 289.797 134.699ZM296.03 134.429V112.927H299.752V134.429H296.03ZM295.926 108.373V104.38H299.856V108.373H295.926ZM311.4 134.845C310 134.845 308.766 134.602 307.699 134.117C306.645 133.618 305.813 132.904 305.203 131.975C304.607 131.046 304.309 129.923 304.309 128.606C304.309 126.222 305.141 124.447 306.804 123.283C308.468 122.118 311.137 121.494 314.811 121.411L318.637 121.307V119.623C318.637 118.306 318.242 117.266 317.451 116.503C316.661 115.727 315.441 115.339 313.792 115.339C312.558 115.353 311.469 115.644 310.527 116.212C309.584 116.781 308.981 117.71 308.718 118.999H305.328C305.411 117.599 305.799 116.42 306.493 115.464C307.2 114.493 308.191 113.758 309.466 113.259C310.742 112.76 312.246 112.511 313.979 112.511C315.85 112.511 317.403 112.774 318.637 113.301C319.885 113.828 320.813 114.604 321.423 115.63C322.047 116.656 322.359 117.917 322.359 119.415V134.429H319.073L318.782 130.394C317.964 132.072 316.911 133.236 315.622 133.888C314.346 134.526 312.939 134.845 311.4 134.845ZM312.544 132.079C313.279 132.079 314 131.947 314.707 131.684C315.427 131.42 316.079 131.067 316.661 130.623C317.257 130.166 317.736 129.66 318.096 129.105C318.457 128.537 318.637 127.955 318.637 127.358V123.678L315.455 123.74C313.805 123.768 312.433 123.934 311.338 124.239C310.243 124.544 309.418 125.022 308.863 125.674C308.309 126.326 308.031 127.178 308.031 128.232C308.031 129.438 308.454 130.381 309.3 131.06C310.146 131.739 311.227 132.079 312.544 132.079ZM327.526 134.429V112.927H331.248V116.046C331.595 115.45 332.073 114.888 332.683 114.362C333.307 113.835 334.056 113.412 334.929 113.093C335.816 112.774 336.835 112.615 337.986 112.615C339.344 112.615 340.592 112.885 341.729 113.426C342.88 113.966 343.795 114.812 344.474 115.963C345.167 117.1 345.514 118.569 345.514 120.371V134.429H341.667V120.746C341.667 119.068 341.223 117.827 340.336 117.023C339.462 116.205 338.326 115.796 336.925 115.796C335.955 115.796 335.047 115.956 334.201 116.275C333.356 116.58 332.669 117.051 332.142 117.689C331.616 118.313 331.352 119.103 331.352 120.059V134.429H327.526ZM359.349 134.845C357.408 134.845 355.689 134.422 354.191 133.576C352.708 132.73 351.543 131.483 350.698 129.833C349.866 128.183 349.45 126.159 349.45 123.761C349.45 121.515 349.831 119.553 350.594 117.876C351.37 116.185 352.493 114.868 353.963 113.925C355.446 112.982 357.241 112.511 359.349 112.511C360.887 112.511 362.267 112.809 363.487 113.405C364.721 113.987 365.733 114.819 366.523 115.9C367.313 116.982 367.798 118.257 367.978 119.727H364.568C364.443 118.978 364.152 118.292 363.695 117.668C363.251 117.044 362.662 116.545 361.927 116.171C361.206 115.796 360.354 115.609 359.369 115.609C357.525 115.609 356.021 116.275 354.857 117.606C353.706 118.936 353.131 120.974 353.131 123.719C353.131 126.201 353.658 128.19 354.711 129.687C355.779 131.171 357.345 131.913 359.411 131.913C360.395 131.913 361.255 131.725 361.989 131.351C362.724 130.963 363.313 130.457 363.757 129.833C364.201 129.195 364.485 128.516 364.61 127.795H367.958C367.777 129.237 367.285 130.485 366.481 131.538C365.691 132.592 364.679 133.41 363.445 133.992C362.225 134.56 360.86 134.845 359.349 134.845ZM381.454 134.845C379.458 134.845 377.697 134.408 376.172 133.535C374.647 132.661 373.455 131.407 372.596 129.771C371.736 128.135 371.306 126.173 371.306 123.886C371.306 121.626 371.694 119.643 372.471 117.938C373.247 116.233 374.37 114.902 375.84 113.946C377.323 112.989 379.104 112.511 381.184 112.511C383.208 112.511 384.92 112.947 386.32 113.821C387.72 114.694 388.781 115.928 389.502 117.522C390.237 119.103 390.604 120.981 390.604 123.158V124.572H375.195C375.195 125.93 375.417 127.164 375.86 128.273C376.318 129.369 377.004 130.242 377.919 130.894C378.834 131.545 379.992 131.871 381.392 131.871C382.764 131.871 383.943 131.552 384.927 130.914C385.925 130.277 386.563 129.355 386.84 128.149H390.458C390.209 129.604 389.627 130.831 388.712 131.829C387.811 132.827 386.722 133.583 385.447 134.096C384.185 134.595 382.854 134.845 381.454 134.845ZM375.216 121.973H386.903C386.903 120.739 386.695 119.63 386.279 118.645C385.863 117.647 385.225 116.864 384.366 116.295C383.52 115.713 382.452 115.422 381.163 115.422C379.818 115.422 378.702 115.748 377.815 116.399C376.928 117.037 376.269 117.862 375.84 118.874C375.41 119.872 375.202 120.905 375.216 121.973Z" fill="#ABD8D6"/>
</svg>
