<svg width="155" height="57" viewBox="0 0 155 57" fill="none" xmlns="http://www.w3.org/2000/svg">
<path d="M62.7921 16.0532C61.6265 16.0532 60.6205 15.7863 59.7739 15.2526C58.9273 14.7128 58.2771 13.9368 57.8231 12.9246C57.3692 11.9124 57.1422 10.6886 57.1422 9.25313C57.1422 7.8054 57.3723 6.56931 57.8323 5.54485C58.2986 4.5204 58.9611 3.73826 59.8199 3.19843C60.6787 2.65246 61.694 2.37948 62.8657 2.37948C63.5343 2.37948 64.1631 2.49603 64.752 2.72914C65.3409 2.96225 65.8623 3.28124 66.3163 3.68611C66.7702 4.08485 67.1322 4.54187 67.4021 5.05717C67.6781 5.57246 67.8346 6.10922 67.8714 6.66746H66.0494C65.9636 6.1767 65.7734 5.71969 65.4789 5.29641C65.1845 4.87313 64.8103 4.53267 64.3563 4.27502C63.9085 4.01738 63.4024 3.88855 62.8381 3.88855C62.0713 3.88855 61.3965 4.07872 60.8137 4.45906C60.2371 4.83326 59.7862 5.41296 59.461 6.19817C59.1421 6.98338 58.9826 7.98943 58.9826 9.21633C58.9826 10.161 59.0807 10.9708 59.277 11.6456C59.4733 12.3204 59.7463 12.8694 60.096 13.2927C60.4518 13.7098 60.8658 14.0196 61.3382 14.222C61.8167 14.4183 62.332 14.5165 62.8841 14.5165C63.4423 14.5165 63.9269 14.4183 64.3379 14.222C64.7551 14.0257 65.1017 13.7742 65.3777 13.4675C65.6538 13.1546 65.8654 12.8203 66.0126 12.4645C66.166 12.1026 66.2488 11.756 66.2611 11.4247L66.3163 10.2469H63.0773V8.99549L68.083 9.00469V15.8691H66.804V13.8448C66.5709 14.2251 66.2764 14.584 65.9206 14.9214C65.5648 15.2588 65.1293 15.5317 64.614 15.7403C64.1048 15.9489 63.4975 16.0532 62.7921 16.0532ZM73.0869 15.9888C72.5716 15.9888 72.1544 15.9182 71.8354 15.7771C71.5226 15.636 71.2803 15.4459 71.1085 15.2066C70.9429 14.9674 70.8294 14.6944 70.768 14.3877C70.7128 14.0748 70.6852 13.7528 70.6852 13.4215V2.19544H72.3599V13.2559C72.3599 13.7344 72.4519 14.0932 72.636 14.3325C72.8261 14.5717 73.0899 14.7036 73.4273 14.7281L73.9426 14.7373V15.8415C73.8015 15.8845 73.6543 15.9182 73.5009 15.9428C73.3476 15.9734 73.2096 15.9888 73.0869 15.9888ZM79.2487 16.0532C78.3715 16.0532 77.6046 15.8661 76.9483 15.4919C76.298 15.1115 75.7919 14.5564 75.43 13.8264C75.0681 13.0964 74.8871 12.2038 74.8871 11.1487C74.8871 10.1549 75.0558 9.2838 75.3932 8.5354C75.7306 7.787 76.2244 7.20729 76.8746 6.79628C77.5249 6.37914 78.3193 6.17057 79.2579 6.17057C80.1351 6.17057 80.8958 6.3638 81.5399 6.75028C82.184 7.13061 82.684 7.69191 83.0398 8.43418C83.4017 9.17645 83.5827 10.0813 83.5827 11.1487C83.5827 12.1179 83.417 12.9706 83.0858 13.7067C82.7545 14.4429 82.2668 15.0195 81.6227 15.4367C80.9847 15.8477 80.1934 16.0532 79.2487 16.0532ZM79.2579 14.7097C79.8223 14.7097 80.3007 14.5656 80.6933 14.2772C81.086 13.9889 81.3835 13.5749 81.5859 13.035C81.7945 12.4952 81.8988 11.8541 81.8988 11.1119C81.8988 10.4309 81.8067 9.82057 81.6227 9.28074C81.4448 8.73477 81.1626 8.30229 80.7762 7.9833C80.3897 7.66431 79.8836 7.50481 79.2579 7.50481C78.6812 7.50481 78.1936 7.64897 77.7948 7.93729C77.3961 8.21948 77.0924 8.63049 76.8838 9.17032C76.6814 9.71015 76.5802 10.3573 76.5802 11.1119C76.5802 11.7805 76.6691 12.3878 76.847 12.9338C77.0311 13.4798 77.3194 13.9122 77.712 14.2312C78.1107 14.5502 78.626 14.7097 79.2579 14.7097ZM90.179 16.0532C89.6207 16.0532 89.1484 15.9796 88.7619 15.8323C88.3816 15.6851 88.0687 15.498 87.8234 15.271C87.578 15.0379 87.3878 14.8017 87.2528 14.5625C87.1179 14.3171 87.0197 14.1024 86.9584 13.9184L86.7744 15.8691H85.4769V2.19544H87.1884V7.86368C87.2682 7.70418 87.3878 7.52935 87.5473 7.33918C87.7129 7.14901 87.9246 6.96498 88.1822 6.78708C88.4399 6.60918 88.7435 6.46196 89.0932 6.3454C89.449 6.22885 89.8539 6.17057 90.3078 6.17057C91.4979 6.17057 92.4426 6.58465 93.1419 7.4128C93.8474 8.24095 94.2001 9.4617 94.2001 11.0751C94.2001 12.075 94.0498 12.9491 93.7492 13.6975C93.4486 14.4398 93.0008 15.0195 92.4058 15.4367C91.8107 15.8477 91.0685 16.0532 90.179 16.0532ZM89.8753 14.7465C90.6483 14.7465 91.2771 14.449 91.7617 13.854C92.2463 13.2528 92.4886 12.2989 92.4886 10.9922C92.4886 9.88191 92.2616 9.02309 91.8077 8.41578C91.3599 7.80233 90.7035 7.49561 89.8385 7.49561C89.2067 7.49561 88.6975 7.63364 88.311 7.90969C87.9307 8.1796 87.6485 8.57528 87.4645 9.0967C87.2866 9.61813 87.1946 10.25 87.1884 10.9922C87.1884 12.3234 87.3939 13.2835 87.8049 13.8724C88.2221 14.4551 88.9122 14.7465 89.8753 14.7465ZM98.6504 16.0532C98.0308 16.0532 97.4849 15.9458 97.0125 15.7311C96.5463 15.5103 96.1782 15.1944 95.9083 14.7833C95.6445 14.3723 95.5126 13.8754 95.5126 13.2927C95.5126 12.2375 95.8807 11.4523 96.6169 10.937C97.353 10.4217 98.5339 10.1457 100.159 10.1089L101.853 10.0629V9.31754C101.853 8.73477 101.678 8.27469 101.328 7.93729C100.978 7.59376 100.439 7.422 99.7086 7.422C99.1626 7.42813 98.6811 7.55696 98.264 7.80847C97.8468 8.05998 97.58 8.47099 97.4634 9.04149H95.9635C96.0003 8.42191 96.1721 7.90049 96.4788 7.47721C96.7917 7.0478 97.2303 6.72267 97.7947 6.50183C98.359 6.28099 99.0246 6.17057 99.7914 6.17057C100.62 6.17057 101.307 6.28712 101.853 6.52023C102.405 6.75334 102.816 7.09687 103.086 7.55082C103.362 8.00477 103.5 8.56301 103.5 9.22553V15.8691H102.046L101.917 14.084C101.555 14.8263 101.089 15.3416 100.518 15.6299C99.954 15.9121 99.3313 16.0532 98.6504 16.0532ZM99.1565 14.8294C99.4816 14.8294 99.8006 14.7711 100.113 14.6545C100.432 14.538 100.721 14.3815 100.978 14.1852C101.242 13.9828 101.454 13.7589 101.613 13.5135C101.773 13.262 101.853 13.0044 101.853 12.7406V11.1119L100.445 11.1395C99.7147 11.1517 99.1074 11.2254 98.6228 11.3603C98.1382 11.4953 97.7732 11.7069 97.5278 11.9952C97.2824 12.2836 97.1597 12.6608 97.1597 13.127C97.1597 13.6607 97.3469 14.0779 97.7211 14.3785C98.0953 14.6791 98.5737 14.8294 99.1565 14.8294ZM108.188 15.9888C107.672 15.9888 107.255 15.9182 106.936 15.7771C106.623 15.636 106.381 15.4459 106.209 15.2066C106.044 14.9674 105.93 14.6944 105.869 14.3877C105.814 14.0748 105.786 13.7528 105.786 13.4215V2.19544H107.461V13.2559C107.461 13.7344 107.553 14.0932 107.737 14.3325C107.927 14.5717 108.191 14.7036 108.528 14.7281L109.043 14.7373V15.8415C108.902 15.8845 108.755 15.9182 108.602 15.9428C108.448 15.9734 108.31 15.9888 108.188 15.9888Z" fill="white"/>
<path d="M57.7575 34.7583V21.4527H62.9105C63.8674 21.4527 64.668 21.5999 65.3121 21.8944C65.9562 22.1827 66.4378 22.5998 66.7568 23.1458C67.0758 23.6856 67.2353 24.3328 67.2353 25.0873C67.2353 25.8112 67.1064 26.4124 66.8488 26.8909C66.5973 27.3694 66.2752 27.7558 65.8826 28.0503C65.49 28.3386 65.0821 28.5625 64.6588 28.722L67.2721 34.7583H65.4685L63.0393 29.0257H59.4598V34.7583H57.7575ZM59.4598 27.6178H62.3584C63.3583 27.6178 64.1312 27.4154 64.6772 27.0105C65.2232 26.5995 65.4961 25.9922 65.4961 25.1886C65.4961 24.4033 65.2508 23.8175 64.76 23.431C64.2754 23.0384 63.6098 22.8421 62.7632 22.8421H59.4598V27.6178ZM69.4326 34.7583V25.2438H71.0797V34.7583H69.4326ZM69.3866 23.2286V21.4619H71.1257V23.2286H69.3866ZM77.5506 37.9053C76.06 37.9053 74.8975 37.6875 74.0632 37.252C73.2289 36.8225 72.8118 36.206 72.8118 35.4024C72.8118 35.0589 72.8915 34.7675 73.051 34.5283C73.2105 34.2829 73.4007 34.0804 73.6215 33.9209C73.8423 33.7615 74.0479 33.6357 74.238 33.5437C74.4282 33.4455 74.5539 33.375 74.6153 33.332C74.5049 33.2707 74.373 33.194 74.2196 33.102C74.0663 33.01 73.9282 32.8873 73.8055 32.7339C73.689 32.5806 73.6307 32.3812 73.6307 32.1358C73.6307 31.8352 73.7718 31.5592 74.054 31.3077C74.3362 31.0562 74.7564 30.8691 75.3146 30.7464C74.7564 30.4642 74.3208 30.09 74.008 29.6238C73.6951 29.1575 73.5387 28.6515 73.5387 28.1055C73.5387 27.492 73.7043 26.9583 74.0356 26.5044C74.3668 26.0504 74.8423 25.7038 75.4618 25.4646C76.0814 25.2192 76.8206 25.0965 77.6794 25.0965C78.299 25.0965 78.8174 25.1701 79.2345 25.3174C79.6578 25.4585 80.0504 25.6609 80.4123 25.9247C80.5105 25.8817 80.6669 25.8173 80.8816 25.7315C81.0963 25.6394 81.3294 25.5413 81.581 25.437C81.8386 25.3327 82.0779 25.2346 82.2987 25.1425C82.5257 25.0444 82.7066 24.9708 82.8416 24.9217L82.8324 26.4952L81.1669 26.808C81.265 27.0044 81.3417 27.2191 81.3969 27.4522C81.4521 27.6853 81.4797 27.903 81.4797 28.1055C81.4797 28.6637 81.3325 29.1698 81.0381 29.6238C80.7497 30.0777 80.3111 30.4396 79.7222 30.7096C79.1333 30.9795 78.3972 31.1144 77.5138 31.1144C77.4402 31.1144 77.3451 31.1144 77.2286 31.1144C77.1181 31.1083 77.0231 31.1022 76.9433 31.096C76.2931 31.1144 75.8452 31.188 75.5999 31.3169C75.3606 31.4396 75.241 31.5776 75.241 31.7309C75.241 31.9088 75.379 32.0315 75.6551 32.099C75.9311 32.1665 76.3973 32.2248 77.0537 32.2738C77.293 32.2861 77.5874 32.3015 77.9371 32.3199C78.2929 32.3383 78.6886 32.3628 79.1241 32.3935C80.1179 32.4548 80.8847 32.7094 81.4245 33.1572C81.9644 33.605 82.2343 34.2093 82.2343 34.9699C82.2343 35.8349 81.8478 36.5404 81.0749 37.0863C80.3081 37.6323 79.1333 37.9053 77.5506 37.9053ZM77.8543 36.8103C78.7315 36.8103 79.4032 36.6784 79.8694 36.4146C80.3418 36.1508 80.578 35.7521 80.578 35.2184C80.578 34.838 80.4338 34.5283 80.1455 34.289C79.8572 34.0436 79.4216 33.9025 78.8389 33.8657L76.1704 33.6909C75.9311 33.6786 75.6827 33.74 75.425 33.8749C75.1674 34.0038 74.9496 34.1847 74.7717 34.4178C74.5938 34.6509 74.5049 34.9147 74.5049 35.2092C74.5049 35.7122 74.7779 36.1048 75.3238 36.387C75.8698 36.6692 76.7133 36.8103 77.8543 36.8103ZM77.569 30.0194C78.25 30.0194 78.799 29.8599 79.2161 29.5409C79.6394 29.222 79.851 28.7496 79.851 28.1239C79.851 27.4798 79.6394 26.989 79.2161 26.6516C78.799 26.3142 78.25 26.1455 77.569 26.1455C76.8697 26.1455 76.3053 26.3173 75.8759 26.6608C75.4526 26.9982 75.241 27.4859 75.241 28.1239C75.241 28.7251 75.4434 29.1913 75.8483 29.5225C76.2593 29.8538 76.8329 30.0194 77.569 30.0194ZM84.6096 34.7583V21.0846H86.2659V26.6424C86.4254 26.3786 86.6401 26.1333 86.91 25.9063C87.1799 25.6732 87.5081 25.4861 87.8946 25.345C88.2811 25.1978 88.7289 25.1241 89.2381 25.1241C89.8576 25.1241 90.4189 25.2407 90.922 25.4738C91.425 25.7008 91.8237 26.0259 92.1182 26.4492C92.4126 26.8725 92.5599 27.3755 92.5599 27.9583V34.7583H90.8575V28.2987C90.8575 27.7282 90.6612 27.2896 90.2686 26.9829C89.8822 26.67 89.3761 26.5136 88.7504 26.5136C88.3271 26.5136 87.9283 26.5841 87.5541 26.7252C87.1799 26.8602 86.8763 27.0688 86.6432 27.3509C86.4162 27.627 86.3027 27.9797 86.3027 28.4091V34.7583H84.6096ZM97.9371 34.8043C97.2807 34.8043 96.7715 34.7154 96.4096 34.5375C96.0477 34.3596 95.7931 34.0958 95.6459 33.7461C95.5048 33.3965 95.4342 32.967 95.4342 32.4579V26.486H93.8883V25.2438H95.4802L95.8943 22.4741H97.1457V25.2346H99.2897V26.486H97.1457V32.4027C97.1457 32.7401 97.1795 32.9885 97.247 33.148C97.3206 33.3014 97.4402 33.3995 97.6058 33.4425C97.7715 33.4854 98.0046 33.5069 98.3052 33.5069H99.3449V34.6479C99.2284 34.6908 99.0505 34.7276 98.8112 34.7583C98.5781 34.789 98.2868 34.8043 97.9371 34.8043ZM104.622 34.9423C103.959 34.9423 103.343 34.8411 102.772 34.6387C102.208 34.4301 101.738 34.108 101.364 33.6725C100.99 33.2308 100.757 32.6695 100.665 31.9886H102.211C102.29 32.3628 102.444 32.6757 102.671 32.9272C102.898 33.1725 103.177 33.3596 103.508 33.4885C103.846 33.6112 104.214 33.6725 104.612 33.6725C105.256 33.6725 105.775 33.5529 106.167 33.3136C106.56 33.0744 106.756 32.7063 106.756 32.2094C106.756 31.8598 106.652 31.5807 106.443 31.3721C106.241 31.1574 105.922 31.0009 105.486 30.9028L103.517 30.4151C102.751 30.2311 102.137 29.9428 101.677 29.5501C101.223 29.1575 100.993 28.6085 100.987 27.903C100.987 27.3448 101.122 26.8541 101.392 26.4308C101.662 26.0075 102.063 25.6732 102.597 25.4278C103.137 25.1824 103.809 25.0597 104.612 25.0597C105.649 25.0597 106.483 25.2928 107.115 25.7591C107.747 26.2191 108.078 26.897 108.109 27.7926H106.6C106.539 27.3387 106.336 26.9798 105.993 26.716C105.649 26.4461 105.183 26.3112 104.594 26.3112C103.993 26.3112 103.499 26.4338 103.112 26.6792C102.732 26.9185 102.542 27.2927 102.542 27.8018C102.542 28.1392 102.677 28.4061 102.947 28.6024C103.223 28.7925 103.622 28.952 104.143 29.0809L106.057 29.5594C106.493 29.6759 106.854 29.8293 107.143 30.0194C107.431 30.2096 107.658 30.4212 107.824 30.6544C107.989 30.8875 108.106 31.1328 108.173 31.3905C108.247 31.642 108.284 31.8843 108.284 32.1174C108.284 32.7002 108.14 33.2032 107.851 33.6265C107.563 34.0436 107.146 34.3688 106.6 34.6019C106.054 34.8288 105.394 34.9423 104.622 34.9423Z" fill="white"/>
<path d="M62.8013 53.831C61.605 53.831 60.5836 53.558 59.7371 53.0121C58.8967 52.4661 58.2526 51.6809 57.8047 50.6564C57.3631 49.632 57.1422 48.3959 57.1422 46.9481C57.1422 45.5066 57.3631 44.2797 57.8047 43.2675C58.2464 42.2553 58.8875 41.4854 59.7279 40.9579C60.5744 40.4242 61.5989 40.1573 62.8013 40.1573C63.7398 40.1573 64.571 40.3536 65.2949 40.7462C66.0188 41.1327 66.6015 41.651 67.0432 42.3013C67.4849 42.9516 67.7456 43.6662 67.8254 44.4453H66.0126C65.9145 43.9239 65.7274 43.4515 65.4513 43.0282C65.1753 42.605 64.8134 42.2676 64.3655 42.016C63.9177 41.7645 63.381 41.6388 62.7552 41.6388C61.9516 41.6388 61.2707 41.8289 60.7125 42.2093C60.1604 42.5835 59.7402 43.1632 59.4518 43.9484C59.1697 44.7336 59.0286 45.7397 59.0286 46.9666C59.0286 48.8192 59.3445 50.181 59.9763 51.0521C60.6143 51.9171 61.5406 52.3495 62.7552 52.3495C63.381 52.3495 63.9177 52.2176 64.3655 51.9539C64.8134 51.6901 65.1753 51.3374 65.4513 50.8957C65.7274 50.454 65.9145 49.9755 66.0126 49.4602H67.8254C67.7579 50.0246 67.6045 50.5705 67.3653 51.0981C67.1322 51.6195 66.8101 52.0858 66.3991 52.4968C65.9881 52.9078 65.482 53.2329 64.8808 53.4721C64.2858 53.7114 63.5926 53.831 62.8013 53.831ZM73.65 53.831C72.7728 53.831 72.006 53.6439 71.3496 53.2697C70.6994 52.8894 70.1933 52.3342 69.8313 51.6042C69.4694 50.8742 69.2884 49.9816 69.2884 48.9265C69.2884 47.9327 69.4571 47.0616 69.7945 46.3132C70.1319 45.5648 70.6257 44.9851 71.276 44.5741C71.9263 44.157 72.7207 43.9484 73.6592 43.9484C74.5365 43.9484 75.2971 44.1416 75.9413 44.5281C76.5854 44.9084 77.0853 45.4697 77.4411 46.212C77.8031 46.9543 77.984 47.8591 77.984 48.9265C77.984 49.8958 77.8184 50.7484 77.4871 51.4846C77.1559 52.2207 76.6682 52.7974 76.0241 53.2145C75.3861 53.6255 74.5947 53.831 73.65 53.831ZM73.6592 52.4876C74.2236 52.4876 74.7021 52.3434 75.0947 52.0551C75.4873 51.7668 75.7848 51.3527 75.9873 50.8129C76.1958 50.273 76.3001 49.632 76.3001 48.8897C76.3001 48.2088 76.2081 47.5984 76.0241 47.0586C75.8462 46.5126 75.564 46.0801 75.1775 45.7611C74.791 45.4421 74.2849 45.2826 73.6592 45.2826C73.0826 45.2826 72.5949 45.4268 72.1962 45.7151C71.7974 45.9973 71.4938 46.4083 71.2852 46.9481C71.0828 47.488 70.9815 48.1352 70.9815 48.8897C70.9815 49.5584 71.0705 50.1657 71.2484 50.7116C71.4324 51.2576 71.7207 51.6901 72.1134 52.0091C72.5121 52.3281 73.0274 52.4876 73.6592 52.4876ZM79.8783 53.647V44.1324H81.5162V45.5127C81.78 45.0955 82.1419 44.7305 82.602 44.4177C83.0621 44.1048 83.6602 43.9484 84.3963 43.9484C84.7398 43.9484 85.0895 44.0067 85.4453 44.1232C85.8072 44.2398 86.1385 44.4146 86.4391 44.6477C86.7397 44.8808 86.9728 45.1661 87.1384 45.5035C87.4329 45.0373 87.8316 44.6631 88.3346 44.3809C88.8376 44.0926 89.4051 43.9484 90.0369 43.9484C90.3682 43.9484 90.7148 44.0005 91.0767 44.1048C91.4387 44.203 91.773 44.3809 92.0797 44.6385C92.3926 44.89 92.6471 45.2428 92.8434 45.6967C93.0397 46.1445 93.1379 46.7212 93.1379 47.4266V53.647H91.4264V47.5923C91.4264 47.0156 91.3344 46.5709 91.1503 46.258C90.9663 45.939 90.724 45.7151 90.4234 45.5863C90.1289 45.4575 89.813 45.3931 89.4756 45.3931C89.1812 45.3931 88.8683 45.4513 88.5371 45.5679C88.2058 45.6845 87.9236 45.8808 87.6905 46.1568C87.4574 46.4329 87.3408 46.8101 87.3408 47.2886V53.647H85.6477V47.0954C85.6477 46.7212 85.5465 46.4083 85.3441 46.1568C85.1478 45.9053 84.8993 45.7151 84.5987 45.5863C84.3043 45.4575 84.0098 45.3931 83.7154 45.3931C83.3903 45.3931 83.0621 45.4575 82.7308 45.5863C82.4057 45.7151 82.1296 45.9206 81.9026 46.2028C81.6818 46.4789 81.5714 46.8408 81.5714 47.2886V53.647H79.8783ZM95.4334 56.6099V44.1324H97.1265L97.1449 45.7887C97.2554 45.5924 97.3965 45.3869 97.5682 45.1722C97.7461 44.9575 97.9608 44.7581 98.2123 44.5741C98.47 44.3901 98.7675 44.2398 99.1049 44.1232C99.4484 44.0067 99.838 43.9484 100.274 43.9484C101.034 43.9484 101.703 44.1232 102.279 44.4729C102.862 44.8164 103.316 45.344 103.641 46.0556C103.966 46.7672 104.129 47.6689 104.129 48.7609C104.129 49.8528 103.97 50.776 103.651 51.5306C103.338 52.279 102.884 52.8495 102.289 53.2421C101.694 53.6347 100.976 53.831 100.135 53.831C99.7122 53.831 99.3349 53.7697 99.0037 53.647C98.6786 53.5304 98.3933 53.3771 98.1479 53.1869C97.9087 52.9906 97.7062 52.782 97.5406 52.5612C97.3811 52.3403 97.2492 52.1287 97.1449 51.9263V56.6099H95.4334ZM99.8134 52.506C100.599 52.506 101.24 52.2084 101.737 51.6134C102.233 51.0122 102.482 50.0798 102.482 48.8161C102.482 47.7303 102.255 46.8684 101.801 46.2304C101.347 45.5924 100.685 45.2734 99.8134 45.2734C98.9301 45.2734 98.2614 45.6016 97.8075 46.258C97.3535 46.9083 97.1265 47.761 97.1265 48.8161C97.1265 49.497 97.2278 50.1166 97.4302 50.6748C97.6326 51.2331 97.9332 51.6778 98.332 52.0091C98.7307 52.3403 99.2245 52.506 99.8134 52.506ZM108.43 53.7666C107.915 53.7666 107.498 53.696 107.179 53.555C106.866 53.4139 106.623 53.2237 106.452 52.9845C106.286 52.7452 106.172 52.4722 106.111 52.1655C106.056 51.8526 106.028 51.5306 106.028 51.1993V39.9733H107.703V51.0337C107.703 51.5122 107.795 51.871 107.979 52.1103C108.169 52.3495 108.433 52.4814 108.77 52.506L109.286 52.5152V53.6194C109.145 53.6623 108.997 53.696 108.844 53.7206C108.691 53.7513 108.553 53.7666 108.43 53.7666ZM111.188 53.647V44.1324H112.835V53.647H111.188ZM111.142 42.1173V40.3505H112.881V42.1173H111.142ZM117.989 53.831C117.369 53.831 116.824 53.7237 116.351 53.5089C115.885 53.2881 115.517 52.9722 115.247 52.5612C114.983 52.1502 114.851 51.6533 114.851 51.0705C114.851 50.0154 115.219 49.2302 115.955 48.7149C116.692 48.1996 117.872 47.9235 119.498 47.8867L121.191 47.8407V47.0954C121.191 46.5126 121.016 46.0525 120.667 45.7151C120.317 45.3716 119.777 45.1998 119.047 45.1998C118.501 45.206 118.02 45.3348 117.603 45.5863C117.185 45.8378 116.919 46.2488 116.802 46.8193H115.302C115.339 46.1997 115.511 45.6783 115.817 45.255C116.13 44.8256 116.569 44.5005 117.133 44.2797C117.698 44.0588 118.363 43.9484 119.13 43.9484C119.958 43.9484 120.645 44.065 121.191 44.2981C121.743 44.5312 122.154 44.8747 122.424 45.3287C122.7 45.7826 122.838 46.3408 122.838 47.0034V53.647H121.384L121.256 51.8618C120.894 52.6041 120.427 53.1194 119.857 53.4077C119.293 53.6899 118.67 53.831 117.989 53.831ZM118.495 52.6072C118.82 52.6072 119.139 52.5489 119.452 52.4324C119.771 52.3158 120.059 52.1594 120.317 51.9631C120.581 51.7606 120.792 51.5367 120.952 51.2913C121.111 51.0398 121.191 50.7822 121.191 50.5184V48.8897L119.783 48.9173C119.053 48.9296 118.446 49.0032 117.961 49.1381C117.477 49.2731 117.112 49.4847 116.866 49.7731C116.621 50.0614 116.498 50.4387 116.498 50.9049C116.498 51.4386 116.685 51.8557 117.06 52.1563C117.434 52.4569 117.912 52.6072 118.495 52.6072ZM125.125 53.647V44.1324H126.772V45.5127C126.925 45.2489 127.137 45.0005 127.407 44.7674C127.683 44.5342 128.014 44.3471 128.4 44.206C128.793 44.065 129.244 43.9944 129.753 43.9944C130.354 43.9944 130.906 44.114 131.409 44.3533C131.919 44.5925 132.323 44.9667 132.624 45.4759C132.931 45.9789 133.084 46.6292 133.084 47.4266V53.647H131.382V47.5923C131.382 46.85 131.186 46.301 130.793 45.9452C130.406 45.5832 129.903 45.4023 129.284 45.4023C128.854 45.4023 128.453 45.4728 128.078 45.6139C127.704 45.7489 127.401 45.9574 127.167 46.2396C126.934 46.5157 126.818 46.8653 126.818 47.2886V53.647H125.125ZM139.206 53.831C138.347 53.831 137.586 53.6439 136.924 53.2697C136.268 52.8955 135.752 52.3434 135.378 51.6134C135.01 50.8834 134.826 49.9878 134.826 48.9265C134.826 47.9327 134.995 47.0647 135.332 46.3224C135.676 45.574 136.172 44.9913 136.823 44.5741C137.479 44.157 138.274 43.9484 139.206 43.9484C139.887 43.9484 140.497 44.0803 141.037 44.3441C141.583 44.6017 142.031 44.9698 142.381 45.4483C142.73 45.9268 142.945 46.4911 143.025 47.1414H141.516C141.46 46.8101 141.332 46.5065 141.129 46.2304C140.933 45.9544 140.672 45.7335 140.347 45.5679C140.028 45.4023 139.651 45.3195 139.215 45.3195C138.399 45.3195 137.734 45.6139 137.218 46.2028C136.709 46.7917 136.455 47.6935 136.455 48.9081C136.455 50.0062 136.688 50.8865 137.154 51.549C137.626 52.2054 138.32 52.5336 139.234 52.5336C139.669 52.5336 140.049 52.4508 140.375 52.2851C140.7 52.1134 140.96 51.8895 141.157 51.6134C141.353 51.3312 141.479 51.0306 141.534 50.7116H143.015C142.936 51.3496 142.718 51.9017 142.362 52.3679C142.012 52.8342 141.565 53.1961 141.019 53.4537C140.479 53.7052 139.875 53.831 139.206 53.831ZM148.988 53.831C148.104 53.831 147.325 53.6378 146.65 53.2513C145.976 52.8648 145.448 52.3097 145.068 51.5858C144.687 50.8619 144.497 49.9939 144.497 48.9817C144.497 47.9818 144.669 47.1046 145.013 46.35C145.356 45.5955 145.853 45.0066 146.503 44.5833C147.16 44.16 147.948 43.9484 148.868 43.9484C149.764 43.9484 150.521 44.1416 151.141 44.5281C151.76 44.9146 152.23 45.4605 152.549 46.166C152.874 46.8653 153.036 47.6966 153.036 48.6597V49.2854H146.218C146.218 49.8866 146.316 50.4325 146.512 50.9233C146.715 51.4079 147.018 51.7944 147.423 52.0827C147.828 52.371 148.34 52.5152 148.96 52.5152C149.567 52.5152 150.089 52.3741 150.524 52.0919C150.966 51.8097 151.248 51.4018 151.371 50.8681H152.972C152.862 51.5122 152.604 52.0551 152.199 52.4968C151.8 52.9384 151.319 53.2728 150.754 53.4997C150.196 53.7206 149.607 53.831 148.988 53.831ZM146.227 48.1352H151.398C151.398 47.5892 151.306 47.0984 151.122 46.6629C150.938 46.2212 150.656 45.8746 150.276 45.6231C149.902 45.3655 149.429 45.2366 148.859 45.2366C148.264 45.2366 147.77 45.3808 147.377 45.6691C146.985 45.9513 146.693 46.3163 146.503 46.7641C146.313 47.2058 146.221 47.6628 146.227 48.1352Z" fill="white"/>
<path d="M10.5108 48.0228C10.3266 48.0228 10.1451 47.9659 9.98795 47.8494C1.146 41.2017 -2.2537 29.7456 1.52525 19.3379C3.80346 13.064 8.39239 8.05252 14.4387 5.22982C20.4878 2.40711 27.2736 2.10371 33.5475 4.38463C34.9616 4.89662 36.3323 5.53863 37.6245 6.29172C38.0416 6.53281 38.1825 7.06647 37.9387 7.48364C37.6949 7.90082 37.1612 8.03898 36.7468 7.79788C35.544 7.09627 34.2681 6.49759 32.9516 6.02082C27.1138 3.89973 20.802 4.17875 15.1756 6.80912C9.54911 9.43678 5.28525 14.0989 3.16416 19.9339C-0.352034 29.6156 2.812 40.2725 11.0336 46.457C11.4183 46.7469 11.4968 47.2941 11.207 47.676C11.0363 47.9036 10.7735 48.0228 10.5108 48.0228Z" fill="#F9FAFB"/>
<path d="M25.0291 52.869C24.3031 52.869 23.5717 52.8392 22.8376 52.7715C22.3581 52.7309 22.0032 52.3056 22.0466 51.8261C22.0872 51.3466 22.5206 50.9863 22.992 51.0351C33.4484 51.9561 43.2764 45.6958 46.8658 35.8082C48.4505 31.4468 48.6997 26.7685 47.5864 22.2852C47.4699 21.8166 47.7543 21.3452 48.2202 21.2287C48.6889 21.1123 49.1602 21.3967 49.2767 21.8626C50.4768 26.6845 50.2086 31.7123 48.5047 36.4015C44.8937 46.3378 35.4368 52.8663 25.0291 52.869Z" fill="#F9FAFB"/>
<path d="M8.12394 39.4814C7.83679 39.4814 7.55507 39.3378 7.38711 39.0777C3.88446 33.5596 3.15305 26.8767 5.3825 20.741C7.28688 15.4965 11.12 11.3085 16.1749 8.94631C21.2297 6.58683 26.8995 6.3349 32.144 8.23927C34.9613 9.26325 37.4671 10.8344 39.5963 12.9095C39.9403 13.2454 39.9485 13.7953 39.6125 14.142C39.2766 14.4861 38.7267 14.4942 38.38 14.1556C36.4296 12.2539 34.1324 10.8128 31.5508 9.87547C26.7451 8.12821 21.5467 8.36118 16.9144 10.5229C12.2821 12.6873 8.76867 16.5259 7.02141 21.3315C4.97887 26.9553 5.64798 33.0829 8.86077 38.1404C9.12083 38.5468 8.99892 39.0859 8.59259 39.3432C8.4463 39.438 8.28377 39.4814 8.12394 39.4814Z" fill="#F9FAFB"/>
<path d="M25.0271 48.7679C22.6216 48.7679 20.2079 48.348 17.8837 47.5001C16.8732 47.1317 15.8845 46.6874 14.9526 46.1754C14.53 45.9452 14.3756 45.4142 14.6086 44.9916C14.8415 44.569 15.3698 44.4146 15.7897 44.6449C16.6457 45.1135 17.5505 45.5226 18.4796 45.8612C23.2853 47.6085 28.4837 47.3782 33.116 45.2138C37.7483 43.0493 41.2617 39.2108 43.009 34.4051C44.8023 29.4668 44.5152 24.1464 42.199 19.4247C41.985 18.9913 42.1638 18.4712 42.5945 18.2599C43.0253 18.0459 43.5481 18.2274 43.7621 18.6581C46.2922 23.8078 46.6065 29.613 44.6452 35.0011C42.7408 40.2429 38.9077 44.4309 33.8528 46.7931C31.0409 48.1069 28.0394 48.7679 25.0271 48.7679Z" fill="#F9FAFB"/>
<path d="M9.22882 32.4708C8.83602 32.4708 8.48115 32.2026 8.38634 31.8044C7.61429 28.5591 7.81205 25.1837 8.95522 22.0359C12.1707 13.1832 21.9906 8.59695 30.8434 11.8124C34.514 13.1452 37.6374 15.7187 39.6474 19.0561C39.8939 19.4652 39.7612 19.9988 39.3521 20.2426C38.9431 20.4892 38.4094 20.3564 38.1656 19.9474C36.3642 16.9459 33.555 14.6352 30.2555 13.4351C22.2994 10.5501 13.4737 14.6731 10.5833 22.6292C9.5566 25.4573 9.38052 28.4913 10.0713 31.4061C10.1824 31.8721 9.89521 32.338 9.42928 32.4491C9.36156 32.4653 9.29383 32.4708 9.22882 32.4708Z" fill="#F9FAFB"/>
<path d="M24.9959 44.9565C23.0644 44.9565 21.1004 44.626 19.1798 43.9298C16.5386 42.9708 14.1601 41.3644 12.2937 39.2812C11.974 38.9264 12.0038 38.3792 12.3614 38.0595C12.7163 37.7426 13.2635 37.7697 13.5831 38.1272C15.2573 39.9964 17.3973 41.4403 19.7703 42.3044C27.7238 45.1894 36.5494 41.0718 39.4426 33.1157C40.2742 30.824 40.5478 28.4428 40.258 26.0373C40.1984 25.5632 40.537 25.1325 41.0138 25.0756C41.4905 25.0187 41.9185 25.3546 41.9754 25.8314C42.3005 28.5078 41.9944 31.1572 41.0679 33.709C38.5513 40.6384 31.9795 44.9537 24.9959 44.9565Z" fill="#F9FAFB"/>
<path d="M36.7885 32.2054C36.7072 32.2054 36.6232 32.1946 36.542 32.1702C36.0787 32.0348 35.816 31.5499 35.9514 31.0893C36.737 28.4265 36.5203 25.5712 35.3446 23.0519C32.6844 17.3578 25.885 14.8872 20.1909 17.5474C19.4892 17.8752 18.8201 18.2734 18.2052 18.7312C17.8205 19.0183 17.2733 18.9371 16.9862 18.5497C16.699 18.165 16.7803 17.6178 17.1677 17.3307C17.8774 16.8052 18.6468 16.3473 19.454 15.9681C26.0205 12.9043 33.8574 15.7487 36.9239 22.3151C38.2811 25.2218 38.5276 28.5131 37.6228 31.5851C37.5118 31.9589 37.165 32.2054 36.7885 32.2054Z" fill="#F9FAFB"/>
<path d="M25.0234 41.0202C23.5118 41.0202 21.9921 40.7547 20.5293 40.2238C17.2298 39.0264 14.594 36.6128 13.1095 33.4325C11.7632 30.5502 11.5058 27.2805 12.3889 24.2275C12.5217 23.767 13.0066 23.4961 13.4671 23.6343C13.9303 23.767 14.1958 24.2519 14.0631 24.7124C13.2964 27.3618 13.5186 30.1953 14.6861 32.6956C15.9756 35.4533 18.2592 37.5473 21.1225 38.5876C23.9859 39.6251 27.0795 39.4896 29.8372 38.2002C30.5848 37.8507 31.2946 37.4227 31.9447 36.927C32.3294 36.6344 32.8739 36.7103 33.1637 37.0895C33.4563 37.4715 33.3832 38.0187 33.0012 38.3113C32.2508 38.8828 31.4354 39.3786 30.574 39.7795C28.8078 40.6057 26.9169 41.0202 25.0234 41.0202Z" fill="#F9FAFB"/>
<path d="M16.7772 30.3579C16.3763 30.3579 16.0187 30.0762 15.9375 29.6671C15.607 28.0147 15.7397 26.2999 16.3167 24.7125C17.1619 22.3882 18.8604 20.5353 21.098 19.487C23.3356 18.4413 25.8495 18.3302 28.1737 19.1754C29.5878 19.6874 30.8664 20.5489 31.8714 21.6568C32.1884 22.0063 32.1613 22.5508 31.8091 22.8677C31.4569 23.1846 30.9152 23.1603 30.5955 22.8081C29.7774 21.906 28.7372 21.2071 27.5832 20.7872C25.6923 20.1019 23.6444 20.1886 21.8213 21.0419C19.9982 21.8925 18.6139 23.4041 17.9258 25.2976C17.4572 26.5952 17.3488 27.9876 17.6143 29.3339C17.7091 29.7999 17.4057 30.2522 16.9398 30.3443C16.8883 30.3525 16.8314 30.3579 16.7772 30.3579Z" fill="#F9FAFB"/>
<path d="M25.0033 37.1248C23.9576 37.1248 22.893 36.946 21.8528 36.5668C21.1458 36.3094 20.4713 35.9681 19.8509 35.5509C19.4554 35.2855 19.3525 34.7518 19.6179 34.359C19.8834 33.9635 20.4144 33.8606 20.8099 34.1233C21.3164 34.4619 21.8636 34.7437 22.4406 34.9523C26.3496 36.3717 30.6812 34.3482 32.098 30.4419C32.5748 29.1281 32.6804 27.7167 32.3987 26.3568C32.3039 25.8909 32.6018 25.4385 33.0651 25.3437C33.5364 25.2462 33.9834 25.5441 34.0782 26.0101C34.4222 27.6815 34.2949 29.4152 33.7098 31.027C32.3472 34.787 28.7877 37.1248 25.0033 37.1248Z" fill="#F9FAFB"/>
<path d="M21.8602 26.1615C21.6652 26.1615 21.4701 26.0965 21.3076 25.9637C20.9365 25.6603 20.8796 25.1104 21.1857 24.7393C22.5158 23.1166 24.7344 22.5071 26.7065 23.2223C26.9097 23.2954 27.1047 23.3794 27.2916 23.4769C27.7196 23.6963 27.8876 24.2219 27.6682 24.6499C27.4488 25.0779 26.9205 25.2459 26.4952 25.0264C26.3733 24.9641 26.246 24.9072 26.1132 24.8585C24.8319 24.3952 23.3989 24.788 22.5375 25.8418C22.3641 26.0531 22.1122 26.1615 21.8602 26.1615Z" fill="#F9FAFB"/>
<path d="M25.0151 32.8228C24.4544 32.8228 23.8855 32.7253 23.3302 32.5248C21.8078 31.9722 20.651 30.7072 20.2339 29.1387C20.112 28.6727 20.3883 28.196 20.8542 28.0741C21.3174 27.9522 21.7942 28.2258 21.9188 28.6917C22.187 29.7076 22.9374 30.5284 23.9234 30.8859C24.728 31.1785 25.5975 31.1406 26.3723 30.7776C27.1498 30.4146 27.7376 29.7726 28.0275 28.968C28.2658 28.3179 28.2848 27.6244 28.0898 26.9607C27.9543 26.5002 28.2144 26.0153 28.6776 25.8771C29.1381 25.7417 29.623 26.0017 29.7612 26.465C30.0619 27.4889 30.0321 28.559 29.6664 29.5613C28.9404 31.5713 27.0387 32.8228 25.0151 32.8228Z" fill="#F9FAFB"/>
</svg>
